PathFileType	4	(X/Y/Z)	C:\Data\4407\4407cd03.trc
DataRate	CameraRate	NumFrames	NumMarkers	Units	OrigDataRate	OrigDataStartFrame	OrigNumFrames
200.00	200.00	      9	29	mm	200.00	1751	      2000
Frame#	Time	Offset			RShoulder			RUpperArm			RElbow			RForearm			RWrist			LShoulder			LUpperArm			LElbow			LForearm			LWrist			LPSIS			RPSIS			RASIS			RThigh			RKnee			RShank			RAnkle			RHeel			RLat5			RToe			LASIS			LThigh			LKnee			LShank			LAnkle			LHeel			LLat5			LToe			
        X1	Y1	Z1	X2	Y2	Z2	X3	Y3	Z3	X4	Y4	Z4	X5	Y5	Z5	X6	Y6	Z6	X7	Y7	Z7	X8	Y8	Z8	X9	Y9	Z9	X10	Y10	Z10	X11	Y11	Z11	X12	Y12	Z12	X13	Y13	Z13	X14	Y14	Z14	X15	Y15	Z15	X16	Y16	Z16	X17	Y17	Z17	X18	Y18	Z18	X19	Y19	Z19	X20	Y20	Z20	X21	Y21	Z21	X22	Y22	Z22	X23	Y23	Z23	X24	Y24	Z24	X25	Y25	Z25	X26	Y26	Z26	X27	Y27	Z27	X28	Y28	Z28	X29	Y29	Z29	

1751	8.750	417.26389	-175.32967	1400.58435	531.37170	-44.60064	1515.10181	590.22345	-146.38356	1338.48816	653.62073	-98.36517	1196.37793	559.16431	27.80751	1131.37683	550.94940	140.55121	1207.53308	182.65800	-38.83886	1524.11255	153.58286	-214.51828	1401.44348	64.84138	-253.31810	1303.59460	110.93215	-165.20045	1171.36243	126.97404	-8.70310	1167.42578	302.62994	-189.27682	1031.73779	354.87509	-193.49921	1030.72839	471.71497	7.58172	1005.85730	400.38098	-10.83842	687.58112	454.01608	-123.34933	505.01852	406.48996	-126.62059	422.68130	392.37598	-363.44040	163.19086	343.30197	-430.17078	164.44441	429.57220	-274.37259	58.67023	321.35657	-255.99722	49.12282	224.76343	29.48400	1006.09137	262.30746	183.38629	761.93384	202.18053	207.32004	589.59271	247.43484	205.07977	504.57001	226.55006	-69.32932	269.84125	280.67947	-131.54800	279.21460	190.66414	13.46827	138.57004	299.84048	13.15653	120.60432	
1752	8.755	418.10974	-174.65349	1404.48938	530.70117	-43.70611	1520.11499	590.43768	-145.29147	1344.14331	654.41870	-97.13422	1202.32190	557.60474	27.43973	1137.72266	547.80780	140.02477	1214.06543	182.56799	-40.40507	1528.87830	155.86320	-216.47792	1407.36853	67.06344	-257.13037	1309.97839	111.86176	-168.47665	1177.50537	125.52137	-11.57484	1174.20288	303.29340	-188.12495	1036.81628	356.43967	-191.64705	1033.90002	471.28033	9.38735	1009.04974	399.76486	-14.45855	690.41602	454.82297	-131.76648	510.26080	407.73965	-135.21603	427.84631	394.73148	-371.67014	167.15161	345.04578	-437.58084	171.72392	430.37546	-286.63940	58.65172	321.81894	-268.22729	50.22692	224.49519	29.68117	1011.46356	263.07465	183.40344	767.13275	202.82698	206.93092	594.28992	248.18271	207.59871	509.32010	227.47070	-56.38186	262.53952	281.17987	-119.20571	269.62378	192.21210	31.78485	134.72142	301.31537	32.42137	117.08009	
1753	8.760	419.06494	-173.91338	1408.25696	530.06146	-43.01645	1525.08154	590.66150	-144.33736	1349.82898	655.09650	-96.14547	1208.10181	555.76532	27.13557	1144.14612	544.69031	139.52130	1220.58789	182.40652	-41.87096	1533.57458	158.24333	-218.19504	1413.10876	69.32870	-260.62033	1316.29968	112.80516	-171.48918	1183.55994	123.85323	-14.65417	1180.93262	304.71292	-188.29865	1044.68848	355.23407	-190.65021	1042.61829	470.78333	10.87746	1012.20807	399.69415	-17.58143	693.43756	455.72147	-139.70137	515.84125	409.07880	-143.65010	433.46408	397.25723	-379.62650	170.98335	346.90814	-444.28098	178.95087	431.30457	-298.86560	58.89384	322.77533	-280.31897	51.68023	224.26173	29.88039	1016.75781	263.72763	183.37317	772.07800	203.43800	205.71268	598.21686	248.62169	209.55753	514.24628	228.28549	-43.13425	255.24539	281.96542	-106.36000	260.04559	193.63426	49.96713	130.91631	302.94568	50.78264	114.00008	
1754	8.765	420.00537	-173.25789	1412.02490	529.24670	-42.35688	1529.90039	590.76196	-143.35663	1355.50366	655.64679	-95.09592	1213.85107	554.35364	26.64315	1150.37732	541.63965	138.91464	1226.70239	182.35728	-43.48868	1537.97058	160.71350	-219.95615	1418.41711	71.81652	-263.83704	1322.57458	115.60883	-174.01682	1190.24915	122.47623	-17.23866	1187.53491	305.18787	-186.11792	1047.79602	355.93817	-189.00970	1047.31384	470.18875	12.50840	1015.57245	399.64594	-20.65099	696.25073	456.53314	-147.67348	521.38647	410.81018	-151.35323	438.99200	400.06052	-387.50424	175.31285	348.91824	-450.23550	186.60797	432.45526	-311.51746	59.57112	323.45227	-291.90506	53.19427	224.01010	30.10868	1021.84045	264.50479	183.13591	776.52594	203.33116	204.78851	601.89563	249.32457	210.87202	517.76318	228.98903	-30.08635	248.07289	282.62817	-93.33071	250.63837	195.27072	68.15096	127.40536	304.62881	69.72884	111.11108	
1755	8.770	420.75839	-172.45883	1415.52600	528.53961	-41.69376	1534.64966	590.82294	-142.57259	1361.17908	656.40869	-94.31691	1219.50745	552.92682	25.69756	1156.41821	538.83875	138.00723	1232.54944	182.28610	-44.96044	1542.34131	163.22765	-221.55898	1423.64319	77.31490	-269.16385	1327.49414	116.76031	-176.54903	1195.93909	121.34505	-19.47432	1193.88293	305.59998	-184.33978	1051.47278	356.58847	-187.58949	1051.74133	469.57785	14.24798	1018.51245	400.10300	-23.40985	698.76691	457.34045	-155.18312	526.98358	412.37918	-158.00891	444.61829	402.49036	-395.07187	179.87161	351.27234	-455.77359	194.43462	433.55304	-322.70386	59.68105	324.32761	-303.54877	55.30014	223.68916	30.34465	1026.68152	265.31070	182.70778	780.81372	203.74394	203.07216	605.09192	250.33305	211.82016	521.00452	229.67340	-16.80799	241.05510	282.80096	-80.42100	241.56192	197.10677	86.21994	124.15206	306.53387	88.21460	108.74332	
1756	8.775	421.44931	-171.69928	1418.90991	527.77386	-41.09177	1539.12927	590.88062	-141.72354	1366.95923	657.28430	-93.36472	1224.92822	551.69434	24.91317	1162.20129	536.15704	137.05083	1238.18506	182.27463	-46.39071	1546.44470	165.65750	-223.13403	1428.30750	80.22388	-272.51566	1332.80090	117.89377	-178.91260	1201.38037	120.09748	-21.74750	1200.21399	306.21671	-183.12515	1055.88184	357.23959	-186.03284	1056.21057	469.12314	15.92051	1021.39148	400.96530	-25.87591	701.20367	458.43298	-162.31306	532.59912	413.47687	-164.79771	450.06119	404.69818	-401.46750	185.05602	353.64313	-460.38690	202.69112	434.60132	-333.53754	60.35786	325.52936	-314.23340	57.59358	223.44182	29.50324	1030.13879	265.79016	182.17522	784.70209	204.81184	201.43562	608.06720	250.65067	212.27559	523.64532	230.06012	-3.67018	234.34412	283.56451	-67.29824	232.55078	199.08160	104.18140	121.03724	308.61713	106.28053	106.97086	
1757	8.780	422.35052	-170.82799	1422.22119	527.05945	-40.39167	1543.38977	591.10089	-140.98257	1372.45874	657.87341	-92.64586	1230.25574	550.40509	24.00079	1167.92725	533.45905	135.96967	1243.37256	182.35518	-47.85662	1550.37500	167.91663	-224.66469	1432.64832	83.11780	-275.80450	1337.73499	118.89542	-180.88458	1206.56921	118.58845	-23.82676	1206.20471	306.95569	-181.76462	1060.26196	357.85422	-184.61182	1060.55334	468.70453	17.60292	1024.27563	401.52505	-28.34722	703.56464	459.53275	-168.50618	538.25983	414.28131	-170.84279	455.35818	406.96951	-407.38885	190.46242	355.85632	-465.04828	210.86392	436.11459	-344.70596	61.36444	326.52673	-324.70773	60.21214	223.50630	28.81788	1033.32251	266.43384	181.48154	788.40961	205.27187	199.33865	610.37274	250.96335	212.29068	526.33868	230.75061	9.57804	227.72137	283.85004	-54.06031	224.05113	201.18909	121.61070	118.19872	310.74469	124.02852	105.47765	
1758	8.785	422.78326	-169.90561	1424.96130	526.32727	-39.78674	1547.51855	591.12897	-140.30028	1377.89111	658.63104	-91.88480	1235.28406	549.31323	22.83345	1173.26636	530.71747	134.94656	1248.31738	182.25394	-49.07364	1554.09937	172.03014	-225.24881	1435.32800	85.80727	-278.86206	1342.27979	120.02866	-182.80659	1211.42664	117.20358	-25.70466	1212.12134	307.56949	-180.46951	1064.11780	358.62390	-183.27129	1064.58850	468.58444	19.29505	1027.04297	402.24374	-30.68089	706.11633	460.13257	-174.04359	543.64014	416.19202	-176.08327	460.96628	408.98752	-413.21930	196.37811	358.04355	-469.07632	219.52176	437.31686	-355.34064	62.65712	327.74710	-334.89575	63.29186	222.88863	30.53798	1039.54749	266.92319	180.87711	791.54260	205.68074	196.84322	611.99634	250.34174	211.08147	529.08362	231.16150	22.53129	221.44641	284.23605	-40.93974	215.75296	203.41208	139.03505	115.82679	313.04410	141.74335	104.46709	
1759	8.790	423.55505	-168.93996	1427.73425	525.58038	-39.31358	1551.34277	591.37482	-139.67038	1383.33691	659.39984	-91.43876	1240.04102	548.17151	22.10433	1178.39294	528.14301	133.74907	1252.83203	182.32909	-50.51014	1557.55591	174.43431	-226.39975	1438.89600	88.59158	-281.67422	1346.34351	121.05125	-184.52637	1216.01892	115.84123	-27.43093	1217.52832	308.17865	-179.34589	1068.07996	359.22986	-182.09354	1068.48987	468.50916	20.62403	1029.57117	403.29895	-32.91238	708.69678	460.78973	-179.15213	548.85693	417.06299	-181.07201	465.94205	410.72000	-418.69205	201.83441	360.26505	-473.33325	227.74666	438.06534	-365.67578	64.77164	329.32568	-344.28708	66.49094	222.77760	30.65219	1042.89429	267.33966	180.25774	794.00494	206.31906	194.07278	613.30414	250.73885	210.45178	530.78778	231.45929	35.50092	215.55177	284.30594	-28.07658	208.13576	205.69940	156.06581	113.76345	315.38611	158.77367	104.02665	
